<svg width="20" height="20" viewBox="0 0 20 20" xmlns="http://www.w3.org/2000/svg">
<path d="M11.9705 2.34921C12.1604 2.12756 12.4378 2 12.7297 2H14.2698C14.5617 2 14.8391 2.12756 15.029 2.34921L17.8794 5.6746L17.1201 6.3254L14.2698 3H13.9997V12H12.9997V3L12.7297 3L9.87937 6.3254L9.12012 5.6746L11.9705 2.34921ZM5.99975 17H5.72971L2.87937 13.6746L2.12012 14.3254L4.97046 17.6508C5.16044 17.8724 5.43779 18 5.72971 18H7.26978C7.5617 18 7.83905 17.8724 8.02903 17.6508L10.8794 14.3254L10.1201 13.6746L7.26978 17H6.99975V8H5.99975V17Z"></path>
</svg>